<svg t="1618741389661" class="icon" viewBox="0 0 1024 1024" version="1.1" xmlns="http://www.w3.org/2000/svg" p-id="3423" width="200" height="200"><path d="M280.53125 511.27083333c-0.09375 42.65625-34.5 77.0625-77.25 76.96875-42.5625-0.09375-77.15625-34.6875-77.0625-77.34375 0-42.46875 34.78125-77.0625 77.4375-76.96875 42.5625 0.09375 76.875 34.59375 76.875 77.34375zM821.46875 434.02083333c42.65625 0 77.34375 34.5 77.34375 77.0625 0.09375 42.5625-34.5 77.25-77.15625 77.25-42.75 0-77.25-34.3125-77.25-77.0625s34.3125-77.25 77.0625-77.25zM512.375 588.33333333c-42.5625 0-77.4375-34.96875-77.25-77.25 0.28125-42.65625 34.78125-77.0625 77.4375-77.0625 42.5625 0 77.34375 34.78125 77.15625 77.25-0.09375 42.5625-34.6875 77.0625-77.34375 77.0625z" p-id="3424" fill="#ffffff"></path></svg>