<svg t="1618741545032" class="icon" viewBox="0 0 1128 1024" version="1.1" xmlns="http://www.w3.org/2000/svg" p-id="8833" width="200" height="200"><path d="M187.4271875 124.9690625h734.0625c21.09375 0 37.96875 16.875 37.96875 37.96875v299.53125c-37.96875-29.53125-109.6875-75.9375-164.53125-75.9375-80.15625 0-151.875 185.625-240.46875 185.625-67.5-4.21875-160.3125-80.15625-265.78125-67.5-42.1875 8.4375-101.25 75.9375-139.21875 126.5625v-468.28125c0-21.09375 16.875-37.96875 37.96875-37.96875z m177.1865625 303.75c-33.75 0-63.28125-12.65625-84.375-33.75s-33.75-54.84375-33.75-84.375 12.65625-63.28125 33.75-84.375 50.625-33.75 84.375-33.75c29.53125 0 59.0625 12.65625 84.375 33.75 21.09375 21.09375 33.75 54.84375 33.75 84.375s-12.65625 63.28125-33.75 84.375c-25.3125 21.09375-54.84375 33.75-84.375 33.75z m577.96875-358.59375h-776.25c-42.1875 0-75.9375 33.75-75.9375 75.9375v691.875c0 42.1875 33.75 75.9375 75.9375 75.9375h776.25c42.1875 0 75.9375-33.75 75.9375-75.9375v-691.875c0-42.1875-33.75-75.9375-75.9375-75.9375z" p-id="8834" fill="#ffffff"></path></svg>