<svg t="1618741497281" class="icon" viewBox="0 0 1024 1024" version="1.1" xmlns="http://www.w3.org/2000/svg" p-id="6699" width="200" height="200"><path d="M477.1 128v348.9H128.2V128h348.9z m0 418.7v348.9H128.2V546.7h348.9zM197.9 407.1h209.4V197.8H197.9v209.3z m0 418.2h209.4V616.5H197.9v208.8z m139.6-557.7v69.8h-69.8v-69.8h69.8z m0 418.7v69.8h-69.8v-69.8h69.8zM895.8 128v348.9H546.9V128h348.9z m0 418.7v209.4H686.4v-69.8h-69.8v209.4h-69.8v-349h209.4v69.8H826v-69.8h69.8zM616.7 407.1H826V197.8H616.7v209.3z m139.5-139.5v69.8h-69.8v-69.8h69.8z m0 558.3v69.8h-69.8v-69.8h69.8z m139.6 0v69.8H826v-69.8h69.8z" fill="#ffffff" p-id="6700"></path></svg>